<svg xmlns="http://www.w3.org/2000/svg" height="360" width="360"><defs><clipPath id="a" clipPathUnits="userSpaceOnUse"><path d="M0 0h270v270H0z"/></clipPath><clipPath id="b" clipPathUnits="userSpaceOnUse"><path d="M0 0h270v270H0z"/></clipPath><clipPath id="c" clipPathUnits="userSpaceOnUse"><path d="M92.712 186.644h86.877V90.739H92.712z"/></clipPath></defs><g clip-path="url(#a)" transform="matrix(1.33333 0 0 -1.33333 0 360)"><path d="M135 0c74.558 0 135 60.442 135 135 0 74.558-60.442 135-135 135C60.442 270 0 209.558 0 135 0 60.442 60.442 0 135 0" fill="#bb0023"/><path d="M135 43.703c50.422 0 91.297 40.875 91.297 91.297S185.422 226.297 135 226.297 43.703 185.422 43.703 135 84.578 43.703 135 43.703" fill="#bb0023"/><path d="M139.944 43.834c47.307 2.524 85.054 41.062 86.32 88.693m-.098 7.417c-2.524 47.307-41.062 85.054-88.693 86.32m-7.417-.098c-47.307-2.524-85.054-41.062-86.32-88.693m.098-7.417c2.524-47.307 41.062-85.054 88.693-86.32" fill="none" stroke="#f5f3d2" stroke-width="2.476" stroke-linecap="round" stroke-linejoin="round" stroke-dasharray="0,4.946"/><path d="M226.297 135h0M135 226.297h0M43.703 135h0M135 43.703h0" fill="none" stroke="#f5f3d2" stroke-width="2.476" stroke-linecap="round" stroke-linejoin="round"/></g><text style="-inkscape-font-specification:GothamPro" transform="matrix(-1.30282 -.28362 .28362 -1.30282 161.89 318.39)" font-weight="400" font-size="25.253" font-family="Gotham Pro" fill="#f5f3d2"><tspan y="0" x="0">п</tspan></text><text style="-inkscape-font-specification:GothamPro" transform="rotate(-157.776 98.994 142.842) scale(1.33334)" font-weight="400" font-size="25.253" font-family="Gotham Pro" fill="#f5f3d2"><tspan y="0" x="0">р</tspan></text><text style="-inkscape-font-specification:GothamPro" transform="rotate(-146.647 103.031 134.634) scale(1.33333)" font-weight="400" font-size="25.253" font-family="Gotham Pro" fill="#f5f3d2"><tspan y="0" x="0">и</tspan></text><text style="-inkscape-font-specification:GothamPro" transform="rotate(-137.049 103.304 126.181) scale(1.33334)" font-weight="400" font-size="25.253" font-family="Gotham Pro" fill="#f5f3d2"><tspan y="0" x="0">ч</tspan></text><text style="-inkscape-font-specification:GothamPro" transform="matrix(-.78568 -1.07726 1.07726 -.78568 75.302 272.431)" font-weight="400" font-size="25.253" font-family="Gotham Pro" fill="#f5f3d2"><tspan y="0" x="0">и</tspan></text><text style="-inkscape-font-specification:GothamPro" transform="rotate(-115.028 109.663 106.46) scale(1.33333)" font-weight="400" font-size="25.253" font-family="Gotham Pro" fill="#f5f3d2"><tspan y="0" x="0">н</tspan></text><text style="-inkscape-font-specification:GothamPro" transform="rotate(-99.408 114.768 89.504) scale(1.33333)" font-weight="400" font-size="25.253" font-family="Gotham Pro" fill="#f5f3d2"><tspan y="0" x="0">п</tspan></text><text style="-inkscape-font-specification:GothamPro" transform="rotate(-89.275 117.484 75.21) scale(1.33333)" font-weight="400" font-size="25.253" font-family="Gotham Pro" fill="#f5f3d2"><tspan y="0" x="0">о</tspan></text><text style="-inkscape-font-specification:GothamPro" transform="rotate(-77.719 121.52 55.439) scale(1.33333)" font-weight="400" font-size="25.253" font-family="Gotham Pro" fill="#f5f3d2"><tspan y="0" x="0">с</tspan></text><text style="-inkscape-font-specification:GothamPro" transform="rotate(-66.372 128.418 32.843) scale(1.33334)" font-weight="400" font-size="25.253" font-family="Gotham Pro" fill="#f5f3d2"><tspan y="0" x="0">м</tspan></text><text style="-inkscape-font-specification:GothamPro" transform="rotate(-53.895 137.597 -3.09) scale(1.33333)" font-weight="400" font-size="25.253" font-family="Gotham Pro" fill="#f5f3d2"><tspan y="0" x="0">о</tspan></text><text style="-inkscape-font-specification:GothamPro" transform="rotate(-44.317 145.428 -48.834) scale(1.33333)" font-weight="400" font-size="25.253" font-family="Gotham Pro" fill="#f5f3d2"><tspan y="0" x="0">т</tspan></text><text style="-inkscape-font-specification:GothamPro" transform="matrix(1.09579 -.75962 .75962 1.09579 91.68 72.022)" font-weight="400" font-size="25.253" font-family="Gotham Pro" fill="#f5f3d2"><tspan y="0" x="0">р</tspan></text><text style="-inkscape-font-specification:GothamPro" transform="rotate(-25.028 187.912 -220.15) scale(1.33333)" font-weight="400" font-size="25.253" font-family="Gotham Pro" fill="#f5f3d2"><tspan y="0" x="0">е</tspan></text><text style="-inkscape-font-specification:GothamPro" transform="rotate(-15.142 250.042 -471.624) scale(1.33333)" font-weight="400" font-size="25.253" font-family="Gotham Pro" fill="#f5f3d2"><tspan y="0" x="0">т</tspan></text><text style="-inkscape-font-specification:GothamPro" transform="matrix(1.3247 -.15143 .15143 1.3247 153.62 43.052)" font-weight="400" font-size="25.253" font-family="Gotham Pro" fill="#f5f3d2"><tspan y="0" x="0">ь</tspan></text><text style="-inkscape-font-specification:GothamPro" transform="matrix(1.32047 .18477 -.18477 1.32047 186.977 40.559)" font-weight="400" font-size="25.253" font-family="Gotham Pro" fill="#f5f3d2"><tspan y="0" x="0">д</tspan></text><text style="-inkscape-font-specification:GothamPro" transform="rotate(19.404 -22.604 644.688) scale(1.33333)" font-weight="400" font-size="25.253" font-family="Gotham Pro" fill="#f5f3d2"><tspan y="0" x="0">о</tspan></text><text style="-inkscape-font-specification:GothamPro" transform="rotate(34.73 30.504 428.258) scale(1.33333)" font-weight="400" font-size="25.253" font-family="Gotham Pro" fill="#f5f3d2"><tspan y="0" x="0">в</tspan></text><text style="-inkscape-font-specification:GothamPro" transform="rotate(45.683 48.15 357.133) scale(1.33333)" font-weight="400" font-size="25.253" font-family="Gotham Pro" fill="#f5f3d2"><tspan y="0" x="0">с</tspan></text><text style="-inkscape-font-specification:GothamPro" transform="rotate(55.27 56.537 320.663) scale(1.33333)" font-weight="400" font-size="25.253" font-family="Gotham Pro" fill="#f5f3d2"><tspan y="0" x="0">т</tspan></text><text style="-inkscape-font-specification:GothamPro" transform="rotate(64.972 64.032 291.203) scale(1.33333)" font-weight="400" font-size="25.253" font-family="Gotham Pro" fill="#f5f3d2"><tspan y="0" x="0">р</tspan></text><text style="-inkscape-font-specification:GothamPro" transform="rotate(74.858 69.85 268.53) scale(1.33333)" font-weight="400" font-size="25.253" font-family="Gotham Pro" fill="#f5f3d2"><tspan y="0" x="0">е</tspan></text><text style="-inkscape-font-specification:GothamPro" transform="rotate(83.479 72.485 254.317) scale(1.33333)" font-weight="400" font-size="25.253" font-family="Gotham Pro" fill="#f5f3d2"><tspan y="0" x="0">ч</tspan></text><text style="-inkscape-font-specification:GothamPro" transform="rotate(93.626 76.487 238.646) scale(1.33333)" font-weight="400" font-size="25.253" font-family="Gotham Pro" fill="#f5f3d2"><tspan y="0" x="0">и</tspan></text><text style="-inkscape-font-specification:GothamPro" transform="rotate(109.403 82.02 218.656) scale(1.33333)" font-weight="400" font-size="25.253" font-family="Gotham Pro" fill="#f5f3d2"><tspan y="0" x="0">с</tspan></text><text style="-inkscape-font-specification:GothamPro" transform="matrix(-.73307 1.11373 -1.11373 -.73307 302.343 247.06)" font-weight="400" font-size="25.253" font-family="Gotham Pro" fill="#f5f3d2"><tspan y="0" x="0">т</tspan></text><text style="-inkscape-font-specification:GothamPro" transform="rotate(132.951 87.953 195.713) scale(1.33334)" font-weight="400" font-size="25.253" font-family="Gotham Pro" fill="#f5f3d2"><tspan y="0" x="0">о</tspan></text><text style="-inkscape-font-specification:GothamPro" transform="matrix(-1.07726 .78568 -.78568 -1.07726 270.83 285.865)" font-weight="400" font-size="25.253" font-family="Gotham Pro" fill="#f5f3d2"><tspan y="0" x="0">б</tspan></text><text style="-inkscape-font-specification:GothamPro" transform="rotate(154.972 92.147 178.03) scale(1.33333)" font-weight="400" font-size="25.253" font-family="Gotham Pro" fill="#f5f3d2"><tspan y="0" x="0">о</tspan></text><text style="-inkscape-font-specification:GothamPro" transform="rotate(166.286 93.315 169.667) scale(1.33333)" font-weight="400" font-size="25.253" font-family="Gotham Pro" fill="#f5f3d2"><tspan y="0" x="0">й</tspan></text><g clip-path="url(#b)" transform="matrix(1.33333 0 0 -1.33333 0 360)"><path d="M134.705 82.52c23.734 0 39.212 13.857 39.212 35.674 0 23.587-16.068 33.316-36.116 33.316-5.749 0-9.435-.737-13.562-1.769l1.18 17.837h43.928v19.901H105.96l-2.948-50.858 13.12-8.697c4.864 2.064 10.761 3.833 17.247 3.833 10.762 0 18.28-5.16 18.28-14.005 0-9.434-6.634-14.594-17.248-14.594-9.14 0-16.805 4.128-24.618 11.204L96.082 98c10.025-9.582 22.113-15.479 38.623-15.479" fill="#f5f3d2"/><g clip-path="url(#c)" opacity=".1"><path d="M169.437 177.492h-54.09l-2.132-38.69s51.972 13.717 51.23-21.226c-.833-39.112-52.999-22.47-61.58-12.482" fill="#f5f3d2"/></g><path d="M164.93 177.492H117.6" fill="none" stroke="#bb0023" stroke-width="2.304" stroke-linecap="round" stroke-linejoin="round" stroke-dasharray="0,4.508"/><path d="M115.08 172.656l-1.732-31.435" fill="none" stroke="#bb0023" stroke-width="2.304" stroke-linecap="round" stroke-linejoin="round" stroke-dasharray="0,4.843"/><path d="M117.774 139.795c12.303 2.327 45.35 6.125 46.64-19.886" fill="none" stroke="#bb0023" stroke-width="2.304" stroke-linecap="round" stroke-linejoin="round" stroke-dasharray="0,4.666"/><path d="M164.075 112.94c-4.507-31.292-47.878-18.973-59.53-9.451" fill="none" stroke="#bb0023" stroke-width="2.304" stroke-linecap="round" stroke-linejoin="round" stroke-dasharray="0,4.653"/><path d="M169.437 177.492h0m-54.09 0h0m-2.132-38.69h0m51.23-21.226h0m-61.58-12.482h0" fill="none" stroke="#bb0023" stroke-width="2.304" stroke-linecap="round" stroke-linejoin="round"/><path d="M139.433 28.193c-2.723.352-4.33-2.522-4.432-2.714-.102.192-1.712 3.066-4.434 2.714-2.82-.368-6.681-5.441 4.43-12.721v-.004l.004.003s0-.003.006-.003v.004c11.108 7.28 7.245 12.353 4.426 12.72" fill="#f5f3d2"/></g></svg>