<svg xmlns="http://www.w3.org/2000/svg" height="777.289" width="770.797"><defs><clipPath id="a" clipPathUnits="userSpaceOnUse"><path d="M0 0h578.098v582.967H0z"/></clipPath></defs><g clip-path="url(#a)" transform="matrix(1.33333 0 0 -1.33333 0 777.29)"><path d="M346.264 473.29c-6.73 0-12.194 3.818-14.716 10.535-.048.133-.097.267-.144.403-9.022-3.842-18.613-3.882-26.976.137a26.56 26.56 0 00-.81.404c-4.461-3.629-9.777-6.944-16.108-9.687a2.564 2.564 0 00-2.037 4.704c5.262 2.276 9.763 4.962 13.613 7.884-6.646 5.185-10.58 13.015-10.783 21.896-.362 15.843 6.765 24.662 11.048 28.509 4.982 4.476 11.045 6.736 16.215 6.067 9.386-1.225 11.548-9.319 11.379-13.431 0-.225-.332-23.893-19.166-42.236 6.96-2.934 14.895-2.592 22.388.812-1.735 12.315 5.158 24.996 10.999 31.224 4.247 4.532 8.42 6.473 11.748 5.459 3.424-1.041 5.766-3.731 6.424-7.377.698-3.866.255-14.434-18.876-29.051a43.512 43.512 0 00-4.437-2.982c.098-.317.207-.625.324-.935 2.866-7.646 9.18-7.617 12.69-6.926 6.91 1.369 14.152 7.676 13.918 14.887a2.565 2.565 0 002.364 2.638 2.567 2.567 0 002.74-2.241c.12-.832 1.524-8.289 12.756-7.806 11.7.516 12.507 8.809 12.535 9.161.115 1.41 1.362 2.469 2.762 2.348a2.56 2.56 0 002.347-2.761c-.37-4.547-4.485-13.297-17.418-13.867-7.224-.311-11.82 2.119-14.578 5.117-3.038-6.448-9.872-11.205-16.428-12.504a19.425 19.425 0 00-3.773-.381m-32.542 65.845c-3.438 0-7.521-1.795-10.945-4.873-3.628-3.257-9.666-10.785-9.351-24.577.175-7.685 3.737-14.406 9.715-18.64 18.298 16.688 18.675 38.628 18.679 39.781.025.819.01 7.331-6.917 8.235a9.314 9.314 0 01-1.181.074m37.377-18.027c-1.053 0-3.308-1.02-6.194-4.102-5.658-6.034-10.251-15.972-9.825-25.003a38.045 38.045 0 012.272 1.614c13.793 10.538 17.796 19.338 16.943 24.064-.314 1.739-1.304 2.911-2.87 3.383-.09.029-.198.044-.326.044" fill="#f5f3d2"/><path d="M225.556 473.29c-1.218 0-2.477.125-3.768.381-6.562 1.299-13.394 6.056-16.432 12.504-2.758-3.002-7.366-5.432-14.578-5.117-12.933.57-17.05 9.32-17.42 13.867a2.564 2.564 0 002.349 2.761c1.406.098 2.637-.927 2.76-2.328.09-.902 1.199-8.68 12.536-9.181 11.587-.517 12.714 7.466 12.756 7.806.167 1.361 1.385 2.336 2.74 2.241a2.565 2.565 0 002.364-2.638c-.233-7.211 7.01-13.518 13.92-14.887 3.508-.695 9.822-.722 12.69 6.926.116.31.223.618.322.935a44.5 44.5 0 00-4.435 2.982c-19.133 14.617-19.574 25.185-18.877 29.051.659 3.646 3 6.336 6.423 7.377 3.33 1.003 7.502-.927 11.75-5.459 5.84-6.228 12.734-18.911 10.999-31.224 7.494-3.404 15.425-3.746 22.389-.812-18.835 18.347-19.17 42.032-19.17 42.336-.167 4.012 1.994 12.106 11.383 13.331 5.167.675 11.23-1.591 16.214-6.065 4.28-3.849 11.409-12.666 11.047-28.511-.204-8.881-4.137-16.711-10.782-21.896 3.849-2.922 8.35-5.608 13.612-7.884a2.562 2.562 0 10-2.037-4.704c-6.331 2.743-11.645 6.054-16.106 9.687a26.634 26.634 0 00-.812-.402c-8.363-4.019-17.954-3.979-26.976-.139-.047-.136-.097-.27-.147-.403-2.518-6.717-7.983-10.535-14.714-10.535m32.544 65.845c-.403 0-.797-.025-1.18-.074-6.93-.904-6.944-7.416-6.924-8.155.01-1.217.39-23.169 18.686-39.861 5.974 4.236 9.537 10.955 9.712 18.64.317 13.794-5.722 21.32-9.35 24.579-3.424 3.076-7.506 4.871-10.944 4.871m-37.378-18.029c-.127 0-.235-.013-.327-.042-1.562-.472-2.555-1.644-2.868-3.383-.854-4.726 3.149-13.526 16.944-24.064a36.194 36.194 0 012.27-1.61c.427 9.027-4.166 18.965-9.825 24.999-2.887 3.078-5.14 4.1-6.194 4.1m77.215 61.78c-7.388.956-11.744-6.843-12.024-7.364-.28.52-4.644 8.32-12.03 7.364-7.65-.998-18.13-14.764 12.018-34.514v-.011l.012.007s0-.007.017-.007v.01c30.137 19.75 19.655 33.517 12.007 34.515m-72.38-473.209c6.73 0 12.194-3.817 14.716-10.535.047-.133.097-.267.144-.403 9.022 3.842 18.613 3.882 26.976-.136.274-.132.543-.266.81-.405 4.46 3.629 9.776 6.944 16.108 9.687a2.563 2.563 0 002.037-4.703c-5.262-2.277-9.763-4.963-13.613-7.885 6.646-5.185 10.579-13.014 10.783-21.896.362-15.843-6.765-24.661-11.048-28.508-4.982-4.477-11.045-6.736-16.215-6.068-9.386 1.225-11.548 9.319-11.378 13.43 0 .226.33 23.895 19.165 42.237-6.96 2.934-14.895 2.592-22.39-.812 1.737-12.314-5.156-24.995-10.997-31.225-4.247-4.531-8.42-6.472-11.748-5.458-3.424 1.04-5.766 3.73-6.424 7.377-.698 3.867-.256 14.434 18.876 29.05a43.383 43.383 0 004.438 2.984c-.1.316-.208.625-.325.934-2.866 7.646-9.181 7.617-12.69 6.927-6.91-1.37-14.151-7.677-13.918-14.888a2.565 2.565 0 00-2.364-2.637 2.567 2.567 0 00-2.74 2.24c-.121.832-1.524 8.29-12.755 7.806-11.701-.516-12.508-8.808-12.536-9.162a2.564 2.564 0 00-5.11.414c.37 4.547 4.486 13.297 17.419 13.867 7.224.31 11.82-2.12 14.578-5.117 3.038 6.449 9.872 11.205 16.428 12.504 1.293.256 2.554.38 3.773.38m32.542-65.844c3.439 0 7.52 1.795 10.945 4.872 3.628 3.258 9.666 10.787 9.35 24.579-.174 7.684-3.737 14.405-9.714 18.639-18.297-16.688-18.675-38.63-18.68-39.78-.024-.82-.01-7.331 6.918-8.235.384-.05.777-.075 1.18-.075m-37.376 18.027c1.053 0 3.307 1.02 6.195 4.102 5.657 6.034 10.25 15.973 9.824 25.003a38.486 38.486 0 01-2.272-1.613c-13.792-10.54-17.796-19.34-16.943-24.065.315-1.74 1.304-2.911 2.87-3.383.09-.03.199-.044.326-.044" fill="#f5f3d2"/><path d="M346.265 109.677c1.218 0 2.477-.125 3.768-.381 6.56-1.3 13.394-6.055 16.432-12.504 2.758 3.002 7.366 5.432 14.578 5.117 12.933-.57 17.049-9.32 17.419-13.867a2.564 2.564 0 00-2.348-2.761c-1.406-.097-2.637.926-2.76 2.329-.09.902-1.2 8.679-12.536 9.18-11.586.518-12.713-7.465-12.755-7.805-.167-1.362-1.386-2.336-2.741-2.241a2.565 2.565 0 00-2.365 2.637c.235 7.21-7.01 13.519-13.92 14.888-3.507.694-9.821.72-12.69-6.927a17.73 17.73 0 01-.321-.934 44.225 44.225 0 004.434-2.984c19.133-14.616 19.575-25.183 18.878-29.05-.66-3.646-3-6.336-6.423-7.377-3.33-1.003-7.502.927-11.75 5.458-5.841 6.23-12.734 18.912-11 31.225-7.493 3.404-15.424 3.746-22.387.812 18.834-18.346 19.168-42.032 19.17-42.335.167-4.013-1.995-12.107-11.384-13.332-5.167-.674-11.231 1.59-16.213 6.066-4.282 3.849-11.41 12.665-11.048 28.51.204 8.882 4.137 16.71 10.782 21.896-3.85 2.922-8.35 5.608-13.612 7.885a2.561 2.561 0 00-1.333 3.37 2.564 2.564 0 003.37 1.333c6.33-2.743 11.645-6.054 16.106-9.687.267.137.538.273.81.403 8.365 4.018 17.956 3.978 26.978.138.047.136.096.27.146.403 2.519 6.718 7.983 10.535 14.715 10.535M313.72 43.832c.403 0 .797.025 1.18.075 6.93.904 6.943 7.415 6.924 8.155-.01 1.217-.39 23.168-18.686 39.86-5.975-4.236-9.537-10.955-9.712-18.64-.317-13.793 5.723-21.32 9.349-24.58 3.425-3.075 7.507-4.87 10.945-4.87m37.378 18.029c.127 0 .235.013.327.042 1.562.472 2.555 1.644 2.868 3.383.854 4.726-3.15 13.526-16.944 24.065a36.593 36.593 0 01-2.27 1.609c-.427-9.026 4.165-18.965 9.825-25 2.887-3.077 5.139-4.1 6.194-4.1M273.884.081c7.388-.955 11.744 6.843 12.024 7.363.279-.52 4.644-8.318 12.03-7.363 7.649.997 18.129 14.764-12.018 34.515v.01l-.012-.006s0 .006-.017.006v-.01C255.754 14.845 266.236 1.078 273.884.081m-9.777 25.638c-.076 0-.152.004-.229.01-57.446 5.1-110.688 28.074-153.969 66.433-42.932 38.048-72.074 87.605-84.276 143.31a2.553 2.553 0 004.985 1.093c11.968-54.645 40.558-103.257 82.675-140.583 42.46-37.63 94.686-60.165 151.036-65.17a2.551 2.551 0 00-.222-5.093M25.433 333.672a2.55 2.55 0 00-2.521 2.962c19.51 119.924 117.603 211.95 238.544 223.79a2.553 2.553 0 00.498-5.079C143.313 543.73 47.087 453.456 27.949 335.815a2.553 2.553 0 00-2.516-2.143m525.515-3.224a2.552 2.552 0 00-2.519 2.173c-8.754 58.33-37.452 112.736-80.804 153.195-43.562 40.652-100.179 65.522-159.424 70.027a2.552 2.552 0 00-2.35 2.738 2.54 2.54 0 002.737 2.35c60.395-4.593 118.113-29.944 162.517-71.385 44.193-41.24 73.446-96.702 82.37-156.167a2.551 2.551 0 00-2.527-2.93" fill="#f5f3d2"/><path d="M303.383 25.105a2.553 2.553 0 00-.144 5.1c118.039 6.76 217.689 92.206 242.332 207.792a2.552 2.552 0 004.99-1.065C525.44 119.106 423.86 32.002 303.53 25.11c-.05-.002-.098-.004-.148-.004M259.09 12.742a2.36 2.36 0 00-.264.014C198.523 18.943 142.898 43.887 97.965 84.89c-44.656 40.751-74.53 93.434-86.393 152.357a2.553 2.553 0 001.998 3.005 2.556 2.556 0 003.004-1.999c11.648-57.85 40.982-109.579 84.83-149.592 44.119-40.262 98.735-64.753 157.943-70.828a2.553 2.553 0 00-.257-5.09M11.722 332.71a2.552 2.552 0 00-2.526 2.934c19.007 125.835 120.622 223.584 247.108 237.71a2.551 2.551 0 00.567-5.072c-124.194-13.87-223.967-109.847-242.629-233.4a2.553 2.553 0 00-2.52-2.171m552.751-2.162a2.55 2.55 0 00-2.521 2.19c-8.72 60.95-38.181 118.045-82.96 160.766-44.923 42.859-103.592 69.605-165.202 75.31a2.55 2.55 0 00.47 5.082c62.749-5.811 122.504-33.051 168.255-76.7 45.602-43.508 75.608-101.656 84.487-163.734a2.551 2.551 0 00-2.53-2.914" fill="#f5f3d2"/><path d="M311.914 12.285a2.552 2.552 0 00-.213 5.095c60.166 5.113 115.807 29.178 160.905 69.591 44.126 39.542 74.884 93.107 86.606 150.828a2.552 2.552 0 005.001-1.017c-11.941-58.789-43.264-113.343-88.2-153.61-45.931-41.159-102.599-65.668-163.881-70.878a2.648 2.648 0 00-.218-.009m248.712 256.783c-9.649 0-17.472 7.822-17.472 17.472 0 9.65 7.823 17.471 17.472 17.471 9.649 0 17.472-7.822 17.472-17.47 0-9.65-7.823-17.473-17.472-17.473m-543.154 0C7.822 269.068 0 276.89 0 286.54c0 9.65 7.823 17.471 17.472 17.471 9.649 0 17.472-7.822 17.472-17.47 0-9.65-7.823-17.473-17.472-17.473" fill="#f5f3d2"/><path d="M565.437 292.72c-2.955.382-4.698-2.737-4.81-2.945-.111.208-1.857 3.327-4.812 2.945-3.06-.399-7.251-5.905 4.808-13.806v-.004l.004.003s0-.003.007-.003v.004c12.055 7.901 7.862 13.407 4.803 13.806m-543.155 0c-2.955.382-4.698-2.737-4.81-2.945-.11.208-1.857 3.327-4.812 2.945-3.059-.399-7.25-5.905 4.808-13.806v-.004l.004.003s0-.003.007-.003v.004c12.055 7.901 7.862 13.407 4.803 13.806" fill="#bb0023"/></g></svg>