<svg xmlns="http://www.w3.org/2000/svg" height="28.571" width="385.007"><defs><clipPath id="a" clipPathUnits="userSpaceOnUse"><path d="M0 0h288.755v21.429H0z"/></clipPath></defs><g clip-path="url(#a)" transform="matrix(1.33333 0 0 -1.33333 0 28.571)"><path d="M144.377 3.711a7.003 7.003 0 017.003 7.003 7.003 7.003 0 01-7.003 7.003 7.003 7.003 0 01-7.003-7.003 7.003 7.003 0 017.004-7.003" fill="#373535"/><path d="M0 10.714h116.082m56.591 0h116.082" fill="none" stroke="#373535" stroke-width="3"/><path d="M151.78 21.364c-4.65.6-7.392-3.183-7.568-3.51-.176.327-2.924 4.11-7.573 3.51-4.816-.627-11.412-8.949 7.565-21.357V0l.004.002s.004.002.004 0 0-.002.01-.002v.003s0 .004 2.613 1.713c16.359 10.7 9.76 19.021 4.946 19.648" fill="#bb0023"/></g></svg>