<svg xmlns="http://www.w3.org/2000/svg" height="35.024" width="20.568"><defs><clipPath id="a" clipPathUnits="userSpaceOnUse"><path d="M0 0h15.426v26.268H0z"/></clipPath></defs><g clip-path="url(#a)" transform="matrix(1.33333 0 0 -1.33333 0 35.024)"><path d="M15.195 12.16c-.366.753-1.38 1.38-2.731.29-1.824-1.468-4.75-1.468-4.75-1.468s-2.93 0-4.753 1.468c-1.35 1.09-2.364.463-2.73-.29-.64-1.317.085-1.952 1.712-3.021 1.39-.918 3.302-1.258 4.539-1.384L5.449 6.698 1.626 2.78a1.55 1.55 0 010-2.154L1.8.445a1.468 1.468 0 012.105 0L7.73 4.363c1.45-1.486 2.852-2.925 3.825-3.918a1.465 1.465 0 012.103 0l.178.18a1.547 1.547 0 010 2.155l-3.827 3.918-1.03 1.06c1.234.127 3.125.472 4.503 1.38 1.629 1.07 2.353 1.705 1.713 3.022m-.99 7.458c0 3.672-2.91 6.65-6.491 6.65-3.585 0-6.492-2.978-6.492-6.65s2.907-6.647 6.492-6.647c3.582 0 6.49 2.975 6.49 6.647m-3.298 0c0-1.804-1.43-3.27-3.192-3.27-1.763 0-3.193 1.466-3.193 3.27 0 1.808 1.43 3.27 3.193 3.27 1.762 0 3.192-1.462 3.192-3.27" fill="#f5f3d2"/></g></svg>