<svg xmlns="http://www.w3.org/2000/svg" height="27.445" width="33.785"><defs><clipPath id="a" clipPathUnits="userSpaceOnUse"><path d="M0 0h25.339v20.584H0z"/></clipPath></defs><g clip-path="url(#a)" transform="matrix(1.33333 0 0 -1.33333 0 27.445)"><path d="M25.339 18.15a10.376 10.376 0 00-2.985-.82 5.232 5.232 0 012.289 2.878 10.348 10.348 0 00-3.31-1.262 5.192 5.192 0 01-3.788 1.637 5.195 5.195 0 01-5.196-5.195c0-.409.046-.805.133-1.183a14.76 14.76 0 00-10.718 5.43 5.159 5.159 0 01-.705-2.615c0-1.802.92-3.394 2.313-4.32a5.129 5.129 0 00-2.35.647v-.064a5.206 5.206 0 014.166-5.1 5.266 5.266 0 00-2.35-.087 5.218 5.218 0 014.855-3.61 10.439 10.439 0 00-6.455-2.22c-.418 0-.828.022-1.238.07A14.721 14.721 0 017.97 0c9.559 0 14.786 7.921 14.786 14.787l-.015.671a10.488 10.488 0 012.598 2.692" fill="#f5f3d2"/></g></svg>