<svg xmlns="http://www.w3.org/2000/svg" height="35.252" width="35.277"><defs><clipPath id="a" clipPathUnits="userSpaceOnUse"><path d="M0 0h26.458v26.439H0z"/></clipPath></defs><g clip-path="url(#a)" transform="matrix(1.33333 0 0 -1.33333 0 35.252)"><path d="M23.127 26.438c-3.306.003-6.612 0-9.92 0-3.28 0-6.563.003-9.844 0-2.046-.002-3.344-1.231-3.35-3.258-.017-6.64-.018-13.275.002-19.913C.02 1.287 1.262.027 3.23.02A2894.49 2894.49 0 0123.216.016c1.997.006 3.236 1.308 3.236 3.3.008 6.615.008 13.228 0 19.84-.002 2.023-1.286 3.28-3.325 3.282m-3.745-3.126c.978.009 1.955.012 2.93 0 .652-.01.999-.377 1.01-1.01.025-.975.025-1.951 0-2.927-.013-.672-.396-1.023-1.073-1.031-.486-.004-.975 0-1.465 0-.463-.001-.925-.01-1.391 0-.634.015-1.016.33-1.028.98a97.038 97.038 0 00-.003 3.005c.01.653.38.978 1.02.983m-6.196-5.04c2.778.023 5.044-2.216 5.065-5.012a5.001 5.001 0 00-5.005-5.057c-2.794-.007-5.024 2.226-5.026 5.033-.004 2.758 2.219 5.012 4.966 5.036m10.146-3.791c0-3.331.002-6.662 0-9.994-.002-1.037-.28-1.348-1.277-1.348-5.882-.01-11.76-.01-17.64-.002-.934.002-1.286.325-1.288 1.205-.011 3.479-.005 6.956-.003 10.436 0 .118.026.236.045.394h2.114c-.584-3.13.163-5.85 2.528-8.01 1.693-1.543 3.73-2.224 6.01-2.07 4.347.3 8.455 4.297 7.368 10.094h2.143z" fill="#f5f3d2"/></g></svg>