<svg xmlns="http://www.w3.org/2000/svg" height="23.771" width="38.053"><defs><clipPath id="a" clipPathUnits="userSpaceOnUse"><path d="M0 0h28.539v17.828H0z"/></clipPath></defs><g clip-path="url(#a)" transform="matrix(1.33333 0 0 -1.33333 0 23.771)"><path d="M25.453 5.498c2.28-2.322 2.755-3.454 2.832-3.594C29.23.186 27.237.02 27.237.02l-3.81.003s-.822-.207-1.896.605c-1.426 1.07-2.772 3.864-3.819 3.494-1.064-.369-1.03-2.904-1.03-2.904s.01-.535-.234-.822c-.26-.31-.779-.373-.779-.373h-1.706s-3.764-.22-7.08 3.564C3.27 7.717.077 15.964.077 15.964s-.184.537.016.797c.223.293.837.312.837.312h4.08s.381-.07.658-.293c.227-.176.355-.519.355-.519s.657-1.865 1.531-3.517c1.702-3.229 2.495-3.933 3.073-3.59.845.504.591 4.564.591 4.564s.014 1.471-.424 2.13c-.342.506-.985.66-1.266.7-.23.027.145.612.636.876.732.396 2.027.42 3.561.4 1.192-.014 1.535-.094 2.002-.218 1.406-.372.931-1.81.931-5.257 0-1.107-.186-2.656.543-3.172.312-.223 1.077-.033 2.987 3.525.907 1.686 1.588 3.706 1.588 3.706s.147.392.376.543c.236.155.554.122.554.122l4.3-.006s1.281.113 1.491-.523c.217-.673-.483-2.237-2.235-4.796-2.879-4.209-3.2-3.815-.809-6.25" fill="#f5f3d2"/></g></svg>