<svg xmlns="http://www.w3.org/2000/svg" height="27.692" width="38.729"><defs><clipPath id="a" clipPathUnits="userSpaceOnUse"><path d="M0 0h29.046v20.769H0z"/></clipPath></defs><g clip-path="url(#a)" transform="matrix(1.33333 0 0 -1.33333 0 27.692)"><path d="M28.582 17.062c-.222 1.627-1.328 2.877-2.874 3.151-.708.125-1.44.13-2.161.161-3.035.135-6.071.26-9.244.394-3.423-.154-6.978-.302-10.532-.48C2.129 20.205.763 18.94.507 17.311c-.29-1.84-.431-3.696-.486-5.557a44.921 44.921 0 01.494-8.218C.77 1.888 2.201.546 3.748.46 6.271.317 8.794.166 11.318.063c4.256-.174 8.504.04 12.751.296.529.031 1.066.034 1.584.13 1.435.265 2.648 1.58 2.882 3.082.313 2.014.464 4.042.504 6.078.047 2.483-.123 4.954-.457 7.413M11.236 6.277v8.431l7.854-4.214-7.854-4.217" fill="#f5f3d2"/></g></svg>