<?xml version="1.0" encoding="UTF-8" standalone="no"?>
<svg
   xmlns:dc="http://purl.org/dc/elements/1.1/"
   xmlns:cc="http://creativecommons.org/ns#"
   xmlns:rdf="http://www.w3.org/1999/02/22-rdf-syntax-ns#"
   xmlns:svg="http://www.w3.org/2000/svg"
   xmlns="http://www.w3.org/2000/svg"
   viewBox="0 0 360 360"
   height="360"
   width="360"
   xml:space="preserve"
   id="svg2"
   version="1.1"><metadata
     id="metadata8"><rdf:RDF><cc:Work
         rdf:about=""><dc:format>image/svg+xml</dc:format><dc:type
           rdf:resource="http://purl.org/dc/dcmitype/StillImage" /></cc:Work></rdf:RDF></metadata><defs
     id="defs6"><clipPath
       id="clipPath18"
       clipPathUnits="userSpaceOnUse"><path
         id="path16"
         d="M 0,0 H 270 V 270 H 0 Z" /></clipPath><clipPath
       id="clipPath178"
       clipPathUnits="userSpaceOnUse"><path
         id="path176"
         d="M 0,0 H 270 V 270 H 0 Z" /></clipPath><clipPath
       id="clipPath190"
       clipPathUnits="userSpaceOnUse"><path
         id="path188"
         d="M 92.7123,186.644 H 179.589 V 90.7388 H 92.7123 Z" /></clipPath></defs><g
     transform="matrix(1.3333333,0,0,-1.3333333,0,360)"
     id="g10"><g
       id="g12"><g
         clip-path="url(#clipPath18)"
         id="g14"><g
           transform="translate(135)"
           id="g20"><path
             id="path22"
             style="fill:#bb0023;fill-opacity:1;fill-rule:nonzero;stroke:none"
             d="M 0,0 C 74.558,0 135,60.442 135,135 135,209.558 74.558,270 0,270 -74.558,270 -135,209.558 -135,135 -135,60.442 -74.558,0 0,0" /></g><g
           transform="translate(135,43.7029)"
           id="g24"><path
             id="path26"
             style="fill:#bb0023;fill-opacity:1;fill-rule:nonzero;stroke:none"
             d="m 0,0 c 50.422,0 91.297,40.875 91.297,91.297 0,50.422 -40.875,91.297 -91.297,91.297 -50.422,0 -91.297,-40.875 -91.297,-91.297 C -91.297,40.875 -50.422,0 0,0" /></g><g
           transform="translate(139.9435,43.8344)"
           id="g28"><path
             id="path30"
             style="fill:none;stroke:#f5f3d2;stroke-width:2.47600007;stroke-linecap:round;stroke-linejoin:round;stroke-miterlimit:4;stroke-dasharray:0, 4.946;stroke-dashoffset:0;stroke-opacity:1"
             d="M 0,0 C 47.307,2.524 85.054,41.062 86.321,88.693" /></g><g
           transform="translate(226.1655,139.9435)"
           id="g32"><path
             id="path34"
             style="fill:none;stroke:#f5f3d2;stroke-width:2.47600007;stroke-linecap:round;stroke-linejoin:round;stroke-miterlimit:4;stroke-dasharray:0, 4.946;stroke-dashoffset:0;stroke-opacity:1"
             d="M 0,0 C -2.524,47.307 -41.062,85.054 -88.693,86.321" /></g><g
           transform="translate(130.0565,226.1655)"
           id="g36"><path
             id="path38"
             style="fill:none;stroke:#f5f3d2;stroke-width:2.47600007;stroke-linecap:round;stroke-linejoin:round;stroke-miterlimit:4;stroke-dasharray:0, 4.946;stroke-dashoffset:0;stroke-opacity:1"
             d="M 0,0 C -47.307,-2.524 -85.054,-41.062 -86.321,-88.693" /></g><g
           transform="translate(43.8344,130.0565)"
           id="g40"><path
             id="path42"
             style="fill:none;stroke:#f5f3d2;stroke-width:2.47600007;stroke-linecap:round;stroke-linejoin:round;stroke-miterlimit:4;stroke-dasharray:0, 4.946;stroke-dashoffset:0;stroke-opacity:1"
             d="M 0,0 C 2.524,-47.307 41.062,-85.054 88.693,-86.321" /></g><g
           transform="translate(226.2971,135)"
           id="g44"><path
             id="path46"
             style="fill:none;stroke:#f5f3d2;stroke-width:2.47600007;stroke-linecap:round;stroke-linejoin:round;stroke-miterlimit:4;stroke-dasharray:none;stroke-opacity:1"
             d="m 0,0 v 0 m -91.297,91.297 v 0 M -182.594,0 v 0 m 91.297,-91.297 v 0" /></g></g></g><text
       id="text50"
       style="font-variant:normal;font-weight:normal;font-stretch:normal;font-size:25.25332642px;font-family:'Gotham Pro';-inkscape-font-specification:GothamPro;writing-mode:lr-tb;fill:#f5f3d2;fill-opacity:1;fill-rule:nonzero;stroke:none"
       transform="matrix(-0.97711482,0.21271257,0.21271257,0.97711482,121.4178,31.2077)"><tspan
         id="tspan48"
         y="0"
         x="0">п</tspan></text>
<text
       id="text54"
       style="font-variant:normal;font-weight:normal;font-stretch:normal;font-size:25.25326538px;font-family:'Gotham Pro';-inkscape-font-specification:GothamPro;writing-mode:lr-tb;fill:#f5f3d2;fill-opacity:1;fill-rule:nonzero;stroke:none"
       transform="matrix(-0.92571396,0.37822436,0.37822436,0.92571396,102.4558,35.6141)"><tspan
         id="tspan52"
         y="0"
         x="0">р</tspan></text>
<text
       id="text58"
       style="font-variant:normal;font-weight:normal;font-stretch:normal;font-size:25.25324631px;font-family:'Gotham Pro';-inkscape-font-specification:GothamPro;writing-mode:lr-tb;fill:#f5f3d2;fill-opacity:1;fill-rule:nonzero;stroke:none"
       transform="matrix(-0.83529462,0.5498026,0.5498026,0.83529462,86.3045,42.1903)"><tspan
         id="tspan56"
         y="0"
         x="0">и</tspan></text>
<text
       id="text62"
       style="font-variant:normal;font-weight:normal;font-stretch:normal;font-size:25.25328827px;font-family:'Gotham Pro';-inkscape-font-specification:GothamPro;writing-mode:lr-tb;fill:#f5f3d2;fill-opacity:1;fill-rule:nonzero;stroke:none"
       transform="matrix(-0.73194035,0.68136872,0.68136872,0.73194035,69.7052,53.3056)"><tspan
         id="tspan60"
         y="0"
         x="0">ч</tspan></text>
<text
       id="text66"
       style="font-variant:normal;font-weight:normal;font-stretch:normal;font-size:25.25329208px;font-family:'Gotham Pro';-inkscape-font-specification:GothamPro;writing-mode:lr-tb;fill:#f5f3d2;fill-opacity:1;fill-rule:nonzero;stroke:none"
       transform="matrix(-0.58926178,0.80794217,0.80794217,0.58926178,56.4765,65.6767)"><tspan
         id="tspan64"
         y="0"
         x="0">и</tspan></text>
<text
       id="text70"
       style="font-variant:normal;font-weight:normal;font-stretch:normal;font-size:25.25326538px;font-family:'Gotham Pro';-inkscape-font-specification:GothamPro;writing-mode:lr-tb;fill:#f5f3d2;fill-opacity:1;fill-rule:nonzero;stroke:none"
       transform="matrix(-0.42306213,0.90610067,0.90610067,0.42306213,44.6961,81.8517)"><tspan
         id="tspan68"
         y="0"
         x="0">н</tspan></text>
<text
       id="text74"
       style="font-variant:normal;font-weight:normal;font-stretch:normal;font-size:25.25332451px;font-family:'Gotham Pro';-inkscape-font-specification:GothamPro;writing-mode:lr-tb;fill:#f5f3d2;fill-opacity:1;fill-rule:nonzero;stroke:none"
       transform="matrix(-0.16345175,0.98655133,0.98655133,0.16345175,33.9201,106.981)"><tspan
         id="tspan72"
         y="0"
         x="0">п</tspan></text>
<text
       id="text78"
       style="font-variant:normal;font-weight:normal;font-stretch:normal;font-size:25.25332069px;font-family:'Gotham Pro';-inkscape-font-specification:GothamPro;writing-mode:lr-tb;fill:#f5f3d2;fill-opacity:1;fill-rule:nonzero;stroke:none"
       transform="matrix(0.0126518,0.99991996,0.99991996,-0.0126518,30.5964,126.2007)"><tspan
         id="tspan76"
         y="0"
         x="0">о</tspan></text>
<text
       id="text82"
       style="font-variant:normal;font-weight:normal;font-stretch:normal;font-size:25.25332642px;font-family:'Gotham Pro';-inkscape-font-specification:GothamPro;writing-mode:lr-tb;fill:#f5f3d2;fill-opacity:1;fill-rule:nonzero;stroke:none"
       transform="matrix(0.21271257,0.97711482,0.97711482,-0.21271257,31.1268,148.2108)"><tspan
         id="tspan80"
         y="0"
         x="0">с</tspan></text>
<text
       id="text86"
       style="font-variant:normal;font-weight:normal;font-stretch:normal;font-size:25.25333786px;font-family:'Gotham Pro';-inkscape-font-specification:GothamPro;writing-mode:lr-tb;fill:#f5f3d2;fill-opacity:1;fill-rule:nonzero;stroke:none"
       transform="matrix(0.40079453,0.91616797,0.91616797,-0.40079453,35.1439,167.0012)"><tspan
         id="tspan84"
         y="0"
         x="0">м</tspan></text>
<text
       id="text90"
       style="font-variant:normal;font-weight:normal;font-stretch:normal;font-size:25.25329208px;font-family:'Gotham Pro';-inkscape-font-specification:GothamPro;writing-mode:lr-tb;fill:#f5f3d2;fill-opacity:1;fill-rule:nonzero;stroke:none"
       transform="matrix(0.58926178,0.80794217,0.80794217,-0.58926178,44.2604,187.5737)"><tspan
         id="tspan88"
         y="0"
         x="0">о</tspan></text>
<text
       id="text94"
       style="font-variant:normal;font-weight:normal;font-stretch:normal;font-size:25.25328445px;font-family:'Gotham Pro';-inkscape-font-specification:GothamPro;writing-mode:lr-tb;fill:#f5f3d2;fill-opacity:1;fill-rule:nonzero;stroke:none"
       transform="matrix(0.71548711,0.69862594,0.69862594,-0.71548711,56.62,204.2207)"><tspan
         id="tspan92"
         y="0"
         x="0">т</tspan></text>
<text
       id="text98"
       style="font-variant:normal;font-weight:normal;font-stretch:normal;font-size:25.25328445px;font-family:'Gotham Pro';-inkscape-font-specification:GothamPro;writing-mode:lr-tb;fill:#f5f3d2;fill-opacity:1;fill-rule:nonzero;stroke:none"
       transform="matrix(0.82184163,0.56971601,0.56971601,-0.82184163,68.7594,215.9837)"><tspan
         id="tspan96"
         y="0"
         x="0">р</tspan></text>
<text
       id="text102"
       style="font-variant:normal;font-weight:normal;font-stretch:normal;font-size:25.25326538px;font-family:'Gotham Pro';-inkscape-font-specification:GothamPro;writing-mode:lr-tb;fill:#f5f3d2;fill-opacity:1;fill-rule:nonzero;stroke:none"
       transform="matrix(0.90610067,0.42306213,0.42306213,-0.90610067,83.0865,225.8804)"><tspan
         id="tspan100"
         y="0"
         x="0">е</tspan></text>
<text
       id="text106"
       style="font-variant:normal;font-weight:normal;font-stretch:normal;font-size:25.25333786px;font-family:'Gotham Pro';-inkscape-font-specification:GothamPro;writing-mode:lr-tb;fill:#f5f3d2;fill-opacity:1;fill-rule:nonzero;stroke:none"
       transform="matrix(0.96528226,0.26120902,0.26120902,-0.96528226,98.9054,233.2946)"><tspan
         id="tspan104"
         y="0"
         x="0">т</tspan></text>
<text
       id="text110"
       style="font-variant:normal;font-weight:normal;font-stretch:normal;font-size:25.25329781px;font-family:'Gotham Pro';-inkscape-font-specification:GothamPro;writing-mode:lr-tb;fill:#f5f3d2;fill-opacity:1;fill-rule:nonzero;stroke:none"
       transform="matrix(0.99352962,0.11357328,0.11357328,-0.99352962,115.2157,237.7112)"><tspan
         id="tspan108"
         y="0"
         x="0">ь</tspan></text>
<text
       id="text114"
       style="font-variant:normal;font-weight:normal;font-stretch:normal;font-size:25.25326347px;font-family:'Gotham Pro';-inkscape-font-specification:GothamPro;writing-mode:lr-tb;fill:#f5f3d2;fill-opacity:1;fill-rule:nonzero;stroke:none"
       transform="matrix(0.99035123,-0.13858011,-0.13858011,-0.99035123,140.2326,239.5808)"><tspan
         id="tspan112"
         y="0"
         x="0">д</tspan></text>
<text
       id="text118"
       style="font-variant:normal;font-weight:normal;font-stretch:normal;font-size:25.25325394px;font-family:'Gotham Pro';-inkscape-font-specification:GothamPro;writing-mode:lr-tb;fill:#f5f3d2;fill-opacity:1;fill-rule:nonzero;stroke:none"
       transform="matrix(0.94320521,-0.33221066,-0.33221066,-0.94320521,159.6673,236.9058)"><tspan
         id="tspan116"
         y="0"
         x="0">о</tspan></text>
<text
       id="text122"
       style="font-variant:normal;font-weight:normal;font-stretch:normal;font-size:25.25328445px;font-family:'Gotham Pro';-inkscape-font-specification:GothamPro;writing-mode:lr-tb;fill:#f5f3d2;fill-opacity:1;fill-rule:nonzero;stroke:none"
       transform="matrix(0.82184163,-0.56971601,-0.56971601,-0.82184163,187.0651,225.8104)"><tspan
         id="tspan120"
         y="0"
         x="0">в</tspan></text>
<text
       id="text126"
       style="font-variant:normal;font-weight:normal;font-stretch:normal;font-size:25.25328445px;font-family:'Gotham Pro';-inkscape-font-specification:GothamPro;writing-mode:lr-tb;fill:#f5f3d2;fill-opacity:1;fill-rule:nonzero;stroke:none"
       transform="matrix(0.69862594,-0.71548711,-0.71548711,-0.69862594,202.526,215.1156)"><tspan
         id="tspan124"
         y="0"
         x="0">с</tspan></text>
<text
       id="text130"
       style="font-variant:normal;font-weight:normal;font-stretch:normal;font-size:25.25328445px;font-family:'Gotham Pro';-inkscape-font-specification:GothamPro;writing-mode:lr-tb;fill:#f5f3d2;fill-opacity:1;fill-rule:nonzero;stroke:none"
       transform="matrix(0.56971601,-0.82184163,-0.82184163,-0.56971601,215.8965,201.3664)"><tspan
         id="tspan128"
         y="0"
         x="0">т</tspan></text>
<text
       id="text134"
       style="font-variant:normal;font-weight:normal;font-stretch:normal;font-size:25.25326538px;font-family:'Gotham Pro';-inkscape-font-specification:GothamPro;writing-mode:lr-tb;fill:#f5f3d2;fill-opacity:1;fill-rule:nonzero;stroke:none"
       transform="matrix(0.42306213,-0.90610067,-0.90610067,-0.42306213,225.6019,187.5099)"><tspan
         id="tspan132"
         y="0"
         x="0">р</tspan></text>
<text
       id="text138"
       style="font-variant:normal;font-weight:normal;font-stretch:normal;font-size:25.25333786px;font-family:'Gotham Pro';-inkscape-font-specification:GothamPro;writing-mode:lr-tb;fill:#f5f3d2;fill-opacity:1;fill-rule:nonzero;stroke:none"
       transform="matrix(0.26120902,-0.96528226,-0.96528226,-0.26120902,233.1095,171.7787)"><tspan
         id="tspan136"
         y="0"
         x="0">е</tspan></text>
<text
       id="text142"
       style="font-variant:normal;font-weight:normal;font-stretch:normal;font-size:25.25329781px;font-family:'Gotham Pro';-inkscape-font-specification:GothamPro;writing-mode:lr-tb;fill:#f5f3d2;fill-opacity:1;fill-rule:nonzero;stroke:none"
       transform="matrix(0.11357328,-0.99352962,-0.99352962,-0.11357328,237.6938,154.9364)"><tspan
         id="tspan140"
         y="0"
         x="0">ч</tspan></text>
<text
       id="text146"
       style="font-variant:normal;font-weight:normal;font-stretch:normal;font-size:25.25325394px;font-family:'Gotham Pro';-inkscape-font-specification:GothamPro;writing-mode:lr-tb;fill:#f5f3d2;fill-opacity:1;fill-rule:nonzero;stroke:none"
       transform="matrix(-0.06324334,-0.99799814,-0.99799814,0.06324334,239.62,136.9465)"><tspan
         id="tspan144"
         y="0"
         x="0">и</tspan></text>
<text
       id="text150"
       style="font-variant:normal;font-weight:normal;font-stretch:normal;font-size:25.25325394px;font-family:'Gotham Pro';-inkscape-font-specification:GothamPro;writing-mode:lr-tb;fill:#f5f3d2;fill-opacity:1;fill-rule:nonzero;stroke:none"
       transform="matrix(-0.33221066,-0.94320521,-0.94320521,0.33221066,236.6295,109.5484)"><tspan
         id="tspan148"
         y="0"
         x="0">с</tspan></text>
<text
       id="text154"
       style="font-variant:normal;font-weight:normal;font-stretch:normal;font-size:25.25324631px;font-family:'Gotham Pro';-inkscape-font-specification:GothamPro;writing-mode:lr-tb;fill:#f5f3d2;fill-opacity:1;fill-rule:nonzero;stroke:none"
       transform="matrix(-0.5498026,-0.83529462,-0.83529462,0.5498026,226.757,84.7051)"><tspan
         id="tspan152"
         y="0"
         x="0">т</tspan></text>
<text
       id="text158"
       style="font-variant:normal;font-weight:normal;font-stretch:normal;font-size:25.25328827px;font-family:'Gotham Pro';-inkscape-font-specification:GothamPro;writing-mode:lr-tb;fill:#f5f3d2;fill-opacity:1;fill-rule:nonzero;stroke:none"
       transform="matrix(-0.68136872,-0.73194035,-0.73194035,0.68136872,218.3489,71.4826)"><tspan
         id="tspan156"
         y="0"
         x="0">о</tspan></text>
<text
       id="text162"
       style="font-variant:normal;font-weight:normal;font-stretch:normal;font-size:25.25329208px;font-family:'Gotham Pro';-inkscape-font-specification:GothamPro;writing-mode:lr-tb;fill:#f5f3d2;fill-opacity:1;fill-rule:nonzero;stroke:none"
       transform="matrix(-0.80794217,-0.58926178,-0.58926178,0.80794217,203.1228,55.601)"><tspan
         id="tspan160"
         y="0"
         x="0">б</tspan></text>
<text
       id="text166"
       style="font-variant:normal;font-weight:normal;font-stretch:normal;font-size:25.25326538px;font-family:'Gotham Pro';-inkscape-font-specification:GothamPro;writing-mode:lr-tb;fill:#f5f3d2;fill-opacity:1;fill-rule:nonzero;stroke:none"
       transform="matrix(-0.90610067,-0.42306213,-0.42306213,0.90610067,188.2205,44.7299)"><tspan
         id="tspan164"
         y="0"
         x="0">о</tspan></text>
<text
       id="text170"
       style="font-variant:normal;font-weight:normal;font-stretch:normal;font-size:25.25328255px;font-family:'Gotham Pro';-inkscape-font-specification:GothamPro;writing-mode:lr-tb;fill:#f5f3d2;fill-opacity:1;fill-rule:nonzero;stroke:none"
       transform="matrix(-0.9714935,-0.23706621,-0.23706621,0.9714935,168.1447,35.7189)"><tspan
         id="tspan168"
         y="0"
         x="0">й</tspan></text>
<g
       id="g172"><g
         clip-path="url(#clipPath178)"
         id="g174"><g
           transform="translate(134.7052,82.5204)"
           id="g180"><path
             id="path182"
             style="fill:#f5f3d2;fill-opacity:1;fill-rule:nonzero;stroke:none"
             d="m 0,0 c 23.734,0 39.212,13.857 39.212,35.674 0,23.587 -16.068,33.316 -36.116,33.316 -5.749,0 -9.435,-0.737 -13.562,-1.769 l 1.179,17.837 h 43.929 v 19.901 h -63.388 l -2.948,-50.858 13.12,-8.697 c 4.864,2.064 10.761,3.833 17.247,3.833 10.762,0 18.28,-5.16 18.28,-14.005 0,-9.434 -6.634,-14.594 -17.248,-14.594 -9.14,0 -16.805,4.128 -24.618,11.204 L -38.623,15.479 C -28.598,5.897 -16.51,0 0,0" /></g><g
           id="g184"><g
             id="g186" /><g
             id="g198"><g
               style="opacity:0.10000598"
               id="g196"
               clip-path="url(#clipPath190)"><g
                 id="g194"
                 transform="translate(169.4374,177.4919)"><path
                   id="path192"
                   style="fill:#f5f3d2;fill-opacity:1;fill-rule:nonzero;stroke:none"
                   d="m 0,0 h -54.091 l -2.131,-38.689 c 0,0 51.972,13.716 51.229,-21.227 -0.832,-39.112 -52.998,-22.469 -61.58,-12.482" /></g></g></g></g><g
           transform="translate(164.9299,177.4919)"
           id="g200"><path
             id="path202"
             style="fill:none;stroke:#bb0023;stroke-width:2.3039999;stroke-linecap:round;stroke-linejoin:round;stroke-miterlimit:4;stroke-dasharray:0, 4.508;stroke-dashoffset:0;stroke-opacity:1"
             d="M 0,0 H -47.329" /></g><g
           transform="translate(115.0803,172.6558)"
           id="g204"><path
             id="path206"
             style="fill:none;stroke:#bb0023;stroke-width:2.3039999;stroke-linecap:round;stroke-linejoin:round;stroke-miterlimit:4;stroke-dasharray:0, 4.843;stroke-dashoffset:0;stroke-opacity:1"
             d="M 0,0 -1.732,-31.435" /></g><g
           transform="translate(117.7744,139.7947)"
           id="g208"><path
             id="path210"
             style="fill:none;stroke:#bb0023;stroke-width:2.3039999;stroke-linecap:round;stroke-linejoin:round;stroke-miterlimit:4;stroke-dasharray:0, 4.666;stroke-dashoffset:0;stroke-opacity:1"
             d="M 0,0 C 12.303,2.327 45.349,6.125 46.639,-19.886" /></g><g
           transform="translate(164.0752,112.9399)"
           id="g212"><path
             id="path214"
             style="fill:none;stroke:#bb0023;stroke-width:2.3039999;stroke-linecap:round;stroke-linejoin:round;stroke-miterlimit:4;stroke-dasharray:0, 4.653;stroke-dashoffset:0;stroke-opacity:1"
             d="M 0,0 C -4.507,-31.292 -47.878,-18.973 -59.53,-9.451" /></g><g
           transform="translate(169.4374,177.4919)"
           id="g216"><path
             id="path218"
             style="fill:none;stroke:#bb0023;stroke-width:2.3039999;stroke-linecap:round;stroke-linejoin:round;stroke-miterlimit:4;stroke-dasharray:none;stroke-opacity:1"
             d="m 0,0 v 0 m -54.091,0 v 0 m -2.131,-38.689 v 0 m 51.229,-21.227 v 0 m -61.58,-12.482 v 0" /></g><g
           transform="translate(139.4326,28.1926)"
           id="g220"><path
             id="path222"
             style="fill:#f5f3d2;fill-opacity:1;fill-rule:nonzero;stroke:none"
             d="M 0,0 C -2.723,0.352 -4.329,-2.522 -4.432,-2.714 -4.534,-2.522 -6.144,0.352 -8.866,0 c -2.819,-0.368 -6.681,-5.441 4.43,-12.721 v -0.004 l 0.004,0.003 c 0,0 0,-0.003 0.006,-0.003 v 0.004 C 6.682,-5.441 2.819,-0.368 0,0" /></g></g></g></g></svg>