<?xml version="1.0" encoding="UTF-8" standalone="no"?>
<svg
   xmlns:dc="http://purl.org/dc/elements/1.1/"
   xmlns:cc="http://creativecommons.org/ns#"
   xmlns:rdf="http://www.w3.org/1999/02/22-rdf-syntax-ns#"
   xmlns:svg="http://www.w3.org/2000/svg"
   xmlns="http://www.w3.org/2000/svg"
   viewBox="0 0 35.277332 35.251732"
   height="35.251732"
   width="35.277332"
   xml:space="preserve"
   id="svg2"
   version="1.1"><metadata
     id="metadata8"><rdf:RDF><cc:Work
         rdf:about=""><dc:format>image/svg+xml</dc:format><dc:type
           rdf:resource="http://purl.org/dc/dcmitype/StillImage" /></cc:Work></rdf:RDF></metadata><defs
     id="defs6"><clipPath
       id="clipPath18"
       clipPathUnits="userSpaceOnUse"><path
         id="path16"
         d="M 0,0 H 26.458 V 26.439 H 0 Z" /></clipPath></defs><g
     transform="matrix(1.3333333,0,0,-1.3333333,0,35.251733)"
     id="g10"><g
       id="g12"><g
         clip-path="url(#clipPath18)"
         id="g14"><g
           transform="translate(23.1269,26.4376)"
           id="g20"><path
             id="path22"
             style="fill:#f5f3d2;fill-opacity:1;fill-rule:nonzero;stroke:none"
             d="m 0,0 c -3.306,0.003 -6.612,0 -9.92,0 -3.279,0 -6.563,0.003 -9.844,0 -2.046,-0.002 -3.344,-1.231 -3.349,-3.258 -0.018,-6.639 -0.019,-13.275 0.001,-19.913 0.006,-1.979 1.247,-3.24 3.215,-3.247 6.662,-0.025 13.323,-0.025 19.986,-0.004 1.997,0.006 3.236,1.308 3.236,3.3 0.008,6.615 0.008,13.228 0,19.84 C 3.323,-1.259 2.039,-0.002 0,0 m -3.745,-3.126 c 0.978,0.009 1.955,0.012 2.93,0 0.652,-0.009 0.999,-0.377 1.011,-1.009 0.024,-0.976 0.024,-1.952 0,-2.928 -0.014,-0.672 -0.397,-1.023 -1.074,-1.031 -0.486,-0.004 -0.975,0 -1.465,0 -0.463,-0.001 -0.925,-0.009 -1.391,0 -0.634,0.015 -1.016,0.33 -1.028,0.981 -0.019,1.002 -0.015,2.002 -0.003,3.004 0.011,0.653 0.381,0.978 1.02,0.983 m -6.196,-5.04 c 2.778,0.023 5.044,-2.216 5.065,-5.012 0.021,-2.796 -2.213,-5.052 -5.005,-5.057 -2.794,-0.007 -5.024,2.226 -5.026,5.033 -0.004,2.758 2.219,5.012 4.966,5.036 m 10.146,-3.791 c 0,-3.331 0.002,-6.662 0,-9.994 -0.002,-1.037 -0.279,-1.348 -1.277,-1.348 -5.882,-0.01 -11.76,-0.01 -17.639,-0.002 -0.935,0.002 -1.287,0.325 -1.289,1.205 -0.011,3.479 -0.005,6.956 -0.003,10.436 0,0.118 0.026,0.236 0.045,0.394 h 2.114 c -0.584,-3.129 0.163,-5.849 2.528,-8.009 1.693,-1.544 3.731,-2.225 6.011,-2.07 4.346,0.3 8.454,4.296 7.367,10.093 h 2.143 z" /></g></g></g></g></svg>