<?xml version="1.0" encoding="UTF-8" standalone="no"?>
<svg
   xmlns:dc="http://purl.org/dc/elements/1.1/"
   xmlns:cc="http://creativecommons.org/ns#"
   xmlns:rdf="http://www.w3.org/1999/02/22-rdf-syntax-ns#"
   xmlns:svg="http://www.w3.org/2000/svg"
   xmlns="http://www.w3.org/2000/svg"
   viewBox="0 0 385.00668 28.571466"
   height="28.571466"
   width="385.00668"
   xml:space="preserve"
   id="svg2"
   version="1.1"><metadata
     id="metadata8"><rdf:RDF><cc:Work
         rdf:about=""><dc:format>image/svg+xml</dc:format><dc:type
           rdf:resource="http://purl.org/dc/dcmitype/StillImage" /></cc:Work></rdf:RDF></metadata><defs
     id="defs6"><clipPath
       id="clipPath18"
       clipPathUnits="userSpaceOnUse"><path
         id="path16"
         d="M 0,0 H 288.755 V 21.429 H 0 Z" /></clipPath></defs><g
     transform="matrix(1.3333333,0,0,-1.3333333,0,28.571467)"
     id="g10"><g
       id="g12"><g
         clip-path="url(#clipPath18)"
         id="g14"><g
           transform="translate(144.3775,3.7112)"
           id="g20"><path
             id="path22"
             style="fill:#373535;fill-opacity:1;fill-rule:nonzero;stroke:none"
             d="m 0,0 c 3.868,0 7.003,3.135 7.003,7.003 0,3.868 -3.135,7.003 -7.003,7.003 -3.868,0 -7.003,-3.135 -7.003,-7.003 C -7.003,3.135 -3.868,0 0,0" /></g><g
           transform="translate(1e-4,10.7143)"
           id="g24"><path
             id="path26"
             style="fill:none;stroke:#373535;stroke-width:3;stroke-linecap:butt;stroke-linejoin:miter;stroke-miterlimit:4;stroke-dasharray:none;stroke-opacity:1"
             d="M 0,0 H 116.082" /></g><g
           transform="translate(172.673,10.7143)"
           id="g28"><path
             id="path30"
             style="fill:none;stroke:#373535;stroke-width:3;stroke-linecap:butt;stroke-linejoin:miter;stroke-miterlimit:4;stroke-dasharray:none;stroke-opacity:1"
             d="M 0,0 H 116.082" /></g><g
           transform="translate(151.7807,21.3641)"
           id="g32"><path
             id="path34"
             style="fill:#bb0023;fill-opacity:1;fill-rule:nonzero;stroke:none"
             d="m 0,0 c -4.651,0.6 -7.393,-3.183 -7.569,-3.51 -0.176,0.327 -2.924,4.11 -7.573,3.51 -4.816,-0.627 -11.412,-8.949 7.565,-21.357 v -0.007 l 0.004,0.002 c 0,0 0.004,0.002 0.004,0 0,-0.002 0,-0.002 0.01,-0.002 v 0.003 c 0,0 0,0.004 2.613,1.713 C 11.413,-8.949 4.815,-0.627 0,0" /></g></g></g></g></svg>