<?xml version="1.0" encoding="UTF-8" standalone="no"?>
<svg
   xmlns:dc="http://purl.org/dc/elements/1.1/"
   xmlns:cc="http://creativecommons.org/ns#"
   xmlns:rdf="http://www.w3.org/1999/02/22-rdf-syntax-ns#"
   xmlns:svg="http://www.w3.org/2000/svg"
   xmlns="http://www.w3.org/2000/svg"
   viewBox="0 0 20.568399 35.024265"
   height="35.024265"
   width="20.568399"
   xml:space="preserve"
   id="svg2"
   version="1.1"><metadata
     id="metadata8"><rdf:RDF><cc:Work
         rdf:about=""><dc:format>image/svg+xml</dc:format><dc:type
           rdf:resource="http://purl.org/dc/dcmitype/StillImage" /></cc:Work></rdf:RDF></metadata><defs
     id="defs6"><clipPath
       id="clipPath18"
       clipPathUnits="userSpaceOnUse"><path
         id="path16"
         d="M 0,0 H 15.426 V 26.268 H 0 Z" /></clipPath></defs><g
     transform="matrix(1.3333333,0,0,-1.3333333,0,35.024267)"
     id="g10"><g
       id="g12"><g
         clip-path="url(#clipPath18)"
         id="g14"><g
           transform="translate(15.1947,12.1598)"
           id="g20"><path
             id="path22"
             style="fill:#f5f3d2;fill-opacity:1;fill-rule:nonzero;stroke:none"
             d="m 0,0 c -0.366,0.753 -1.38,1.38 -2.731,0.29 -1.824,-1.468 -4.75,-1.468 -4.75,-1.468 0,0 -2.93,0 -4.753,1.468 -1.349,1.09 -2.364,0.463 -2.729,-0.29 -0.64,-1.317 0.084,-1.952 1.711,-3.021 1.391,-0.918 3.302,-1.258 4.539,-1.384 l -1.033,-1.057 c -1.45,-1.486 -2.852,-2.924 -3.823,-3.918 -0.58,-0.593 -0.58,-1.562 0,-2.154 l 0.174,-0.181 c 0.582,-0.593 1.527,-0.593 2.105,0 l 3.825,3.918 c 1.451,-1.486 2.852,-2.925 3.825,-3.918 0.584,-0.593 1.525,-0.593 2.103,0 l 0.178,0.181 c 0.582,0.592 0.582,1.561 0,2.154 l -3.827,3.918 -1.03,1.061 c 1.234,0.126 3.125,0.471 4.503,1.38 C -0.084,-1.952 0.64,-1.317 0,0 m -0.99,7.458 c 0,3.672 -2.909,6.65 -6.491,6.65 -3.585,0 -6.492,-2.978 -6.492,-6.65 0,-3.672 2.907,-6.647 6.492,-6.647 3.582,0 6.491,2.975 6.491,6.647 m -3.299,0 c 0,-1.804 -1.43,-3.269 -3.192,-3.269 -1.763,0 -3.193,1.465 -3.193,3.269 0,1.808 1.43,3.271 3.193,3.271 1.762,0 3.192,-1.463 3.192,-3.271" /></g></g></g></g></svg>