<?xml version="1.0" encoding="UTF-8" standalone="no"?>
<svg
   xmlns:dc="http://purl.org/dc/elements/1.1/"
   xmlns:cc="http://creativecommons.org/ns#"
   xmlns:rdf="http://www.w3.org/1999/02/22-rdf-syntax-ns#"
   xmlns:svg="http://www.w3.org/2000/svg"
   xmlns="http://www.w3.org/2000/svg"
   viewBox="0 0 33.785198 27.444799"
   height="27.444799"
   width="33.785198"
   xml:space="preserve"
   id="svg2"
   version="1.1"><metadata
     id="metadata8"><rdf:RDF><cc:Work
         rdf:about=""><dc:format>image/svg+xml</dc:format><dc:type
           rdf:resource="http://purl.org/dc/dcmitype/StillImage" /></cc:Work></rdf:RDF></metadata><defs
     id="defs6"><clipPath
       id="clipPath18"
       clipPathUnits="userSpaceOnUse"><path
         id="path16"
         d="M 0,0 H 25.339 V 20.584 H 0 Z" /></clipPath></defs><g
     transform="matrix(1.3333333,0,0,-1.3333333,0,27.4448)"
     id="g10"><g
       id="g12"><g
         clip-path="url(#clipPath18)"
         id="g14"><g
           transform="translate(25.3389,18.1501)"
           id="g20"><path
             id="path22"
             style="fill:#f5f3d2;fill-opacity:1;fill-rule:nonzero;stroke:none"
             d="m 0,0 c -0.928,-0.412 -1.933,-0.696 -2.985,-0.821 1.075,0.643 1.895,1.662 2.289,2.879 -1.005,-0.596 -2.119,-1.031 -3.309,-1.262 -0.943,1.005 -2.297,1.637 -3.789,1.637 -2.869,0 -5.196,-2.324 -5.196,-5.195 0,-0.409 0.046,-0.805 0.133,-1.183 -4.324,0.217 -8.151,2.283 -10.718,5.429 -0.449,-0.766 -0.705,-1.662 -0.705,-2.614 0,-1.802 0.92,-3.394 2.313,-4.321 -0.852,0.022 -1.648,0.261 -2.35,0.648 v -0.064 c 0,-2.519 1.793,-4.622 4.166,-5.1 -0.434,-0.117 -0.896,-0.179 -1.367,-0.179 -0.334,0 -0.657,0.031 -0.982,0.092 0.665,-2.063 2.581,-3.563 4.854,-3.611 -1.779,-1.392 -4.021,-2.219 -6.455,-2.219 -0.418,0 -0.828,0.022 -1.238,0.07 2.305,-1.476 5.034,-2.336 7.971,-2.336 9.558,0 14.785,7.921 14.785,14.787 l -0.015,0.671 C -1.577,-1.957 -0.696,-1.044 0,0" /></g></g></g></g></svg>