<?xml version="1.0" encoding="UTF-8" standalone="no"?>
<svg
   xmlns:dc="http://purl.org/dc/elements/1.1/"
   xmlns:cc="http://creativecommons.org/ns#"
   xmlns:rdf="http://www.w3.org/1999/02/22-rdf-syntax-ns#"
   xmlns:svg="http://www.w3.org/2000/svg"
   xmlns="http://www.w3.org/2000/svg"
   viewBox="0 0 38.728535 27.691732"
   height="27.691732"
   width="38.728535"
   xml:space="preserve"
   id="svg2"
   version="1.1"><metadata
     id="metadata8"><rdf:RDF><cc:Work
         rdf:about=""><dc:format>image/svg+xml</dc:format><dc:type
           rdf:resource="http://purl.org/dc/dcmitype/StillImage" /></cc:Work></rdf:RDF></metadata><defs
     id="defs6"><clipPath
       id="clipPath18"
       clipPathUnits="userSpaceOnUse"><path
         id="path16"
         d="M 0,0 H 29.046 V 20.769 H 0 Z" /></clipPath></defs><g
     transform="matrix(1.3333333,0,0,-1.3333333,0,27.691733)"
     id="g10"><g
       id="g12"><g
         clip-path="url(#clipPath18)"
         id="g14"><g
           transform="translate(28.582,17.0623)"
           id="g20"><path
             id="path22"
             style="fill:#f5f3d2;fill-opacity:1;fill-rule:nonzero;stroke:none"
             d="m 0,0 c -0.222,1.627 -1.328,2.877 -2.874,3.151 -0.708,0.125 -1.44,0.129 -2.161,0.161 -3.035,0.135 -6.071,0.259 -9.244,0.394 -3.423,-0.154 -6.978,-0.302 -10.532,-0.48 -1.642,-0.083 -3.008,-1.348 -3.264,-2.977 -0.29,-1.841 -0.431,-3.696 -0.486,-5.557 -0.081,-2.754 0.072,-5.496 0.494,-8.218 0.255,-1.648 1.686,-2.99 3.233,-3.077 2.523,-0.142 5.046,-0.293 7.57,-0.396 4.256,-0.174 8.504,0.039 12.751,0.296 0.529,0.031 1.066,0.034 1.584,0.13 1.435,0.265 2.648,1.58 2.882,3.082 0.313,2.014 0.464,4.042 0.504,6.078 C 0.504,-4.93 0.334,-2.459 0,0 m -17.346,-10.785 v 8.431 c 2.615,-1.403 5.206,-2.794 7.854,-4.214 -2.632,-1.413 -5.221,-2.803 -7.854,-4.217" /></g></g></g></g></svg>